<svg class="awards" version="1.1" id="awards" xmlns="http://www.w3.org/2000/svg" xmlns:xlink="http://www.w3.org/1999/xlink" x="0px" y="0px"
	 width="218px" height="91.333px" viewBox="0 0 218 91.333" style="enable-background:new 0 0 218 91.333;" xml:space="preserve">

	<g id="third-circle">
		<g>
			<polyline class="st0" points="171.093,49.451 158.888,82.985 170.166,77.726 174.982,89.19 187.171,55.303 		"/>
			<polyline class="st0" points="191.129,49.451 203.334,82.985 192.056,77.726 187.24,89.19 175.051,55.303 		"/>
		</g>
		<g>
			<path class="st1" d="M179.785,3.381c0,0,1.221-1.584,2.442,0l3.064,3.977c0,0,1.221,1.584,2.955,0.588l4.353-2.502
				c0,0,1.735-0.996,2.256,0.935l1.31,4.847c0,0,0.521,1.93,2.505,1.673l4.979-0.645c0,0,1.983-0.257,1.726,1.727l-0.645,4.979
				c0,0-0.257,1.983,1.674,2.505l4.847,1.309c0,0,1.931,0.522,0.934,2.256l-2.501,4.354c0,0-0.996,1.734,0.588,2.954l3.977,3.065
				c0,0,1.584,1.221,0,2.442l-3.977,3.064c0,0-1.584,1.221-0.588,2.955l2.501,4.353c0,0,0.997,1.735-0.934,2.256l-4.847,1.31
				c0,0-1.931,0.521-1.674,2.505l0.645,4.979c0,0,0.257,1.983-1.726,1.726l-4.979-0.645c0,0-1.984-0.257-2.505,1.674l-1.31,4.847
				c0,0-0.521,1.931-2.256,0.934l-4.353-2.501c0,0-1.734-0.996-2.955,0.588l-3.064,3.977c0,0-1.221,1.584-2.442,0l-3.065-3.977
				c0,0-1.22-1.584-2.955-0.588l-4.353,2.501c0,0-1.734,0.997-2.256-0.934l-1.309-4.847c0,0-0.522-1.931-2.505-1.674l-4.979,0.645
				c0,0-1.984,0.257-1.727-1.726l0.645-4.979c0,0,0.257-1.984-1.673-2.505l-4.847-1.31c0,0-1.931-0.521-0.935-2.256l2.502-4.353
				c0,0,0.996-1.734-0.588-2.955l-3.977-3.064c0,0-1.584-1.221,0-2.442l3.977-3.065c0,0,1.584-1.22,0.588-2.954l-2.502-4.354
				c0,0-0.996-1.734,0.935-2.256l4.847-1.309c0,0,1.93-0.522,1.673-2.505l-0.645-4.979c0,0-0.257-1.984,1.727-1.727l4.979,0.645
				c0,0,1.983,0.257,2.505-1.673l1.309-4.847c0,0,0.522-1.931,2.256-0.935l3.486,2.003c0,0,2.602,1.495,4.433-0.881L179.785,3.381z"
				/>
			<path class="st2" d="M179.785,3.381c0,0,1.221-1.584,2.442,0l3.064,3.977c0,0,1.221,1.584,2.955,0.588l4.353-2.502
				c0,0,1.735-0.996,2.256,0.935l1.31,4.847c0,0,0.521,1.93,2.505,1.673l4.979-0.645c0,0,1.983-0.257,1.726,1.727l-0.645,4.979
				c0,0-0.257,1.983,1.674,2.505l4.847,1.309c0,0,1.931,0.522,0.934,2.256l-2.501,4.354c0,0-0.996,1.734,0.588,2.954l3.977,3.065
				c0,0,1.584,1.221,0,2.442l-3.977,3.064c0,0-1.584,1.221-0.588,2.955l2.501,4.353c0,0,0.997,1.735-0.934,2.256l-4.847,1.31
				c0,0-1.931,0.521-1.674,2.505l0.645,4.979c0,0,0.257,1.983-1.726,1.726l-4.979-0.645c0,0-1.984-0.257-2.505,1.674l-1.31,4.847
				c0,0-0.521,1.931-2.256,0.934l-4.353-2.501c0,0-1.734-0.996-2.955,0.588l-3.064,3.977c0,0-1.221,1.584-2.442,0l-3.065-3.977
				c0,0-1.22-1.584-2.955-0.588l-4.353,2.501c0,0-1.734,0.997-2.256-0.934l-1.309-4.847c0,0-0.522-1.931-2.505-1.674l-4.979,0.645
				c0,0-1.984,0.257-1.727-1.726l0.645-4.979c0,0,0.257-1.984-1.673-2.505l-4.847-1.31c0,0-1.931-0.521-0.935-2.256l2.502-4.353
				c0,0,0.996-1.734-0.588-2.955l-3.977-3.064c0,0-1.584-1.221,0-2.442l3.977-3.065c0,0,1.584-1.22,0.588-2.954l-2.502-4.354
				c0,0-0.996-1.734,0.935-2.256l4.847-1.309c0,0,1.93-0.522,1.673-2.505l-0.645-4.979c0,0-0.257-1.984,1.727-1.727l4.979,0.645
				c0,0,1.983,0.257,2.505-1.673l1.309-4.847c0,0,0.522-1.931,2.256-0.935l3.486,2.003c0,0,2.602,1.495,4.433-0.881L179.785,3.381z"
				/>
		</g>
		<g>
			<path class="st3" d="M164.682,32.046c0.132,0.183,0.197,0.401,0.197,0.656c0,0.263-0.066,0.474-0.198,0.633
				c-0.074,0.09-0.184,0.171-0.328,0.245c0.219,0.08,0.385,0.206,0.496,0.38c0.112,0.173,0.168,0.383,0.168,0.63
				c0,0.255-0.063,0.483-0.191,0.686c-0.081,0.134-0.183,0.247-0.305,0.338c-0.138,0.105-0.299,0.177-0.486,0.216
				c-0.187,0.039-0.389,0.059-0.607,0.059h-1.938v-4.3h2.078C164.092,31.596,164.463,31.748,164.682,32.046z M162.347,32.334v0.948
				h1.046c0.187,0,0.338-0.035,0.454-0.106c0.116-0.07,0.175-0.196,0.175-0.378c0-0.2-0.077-0.332-0.23-0.396
				c-0.133-0.045-0.303-0.067-0.509-0.067H162.347z M162.347,33.994v1.146h1.044c0.187,0,0.332-0.025,0.436-0.075
				c0.188-0.094,0.283-0.272,0.283-0.537c0-0.224-0.092-0.377-0.274-0.461c-0.102-0.047-0.245-0.071-0.43-0.073H162.347z"/>
			<path class="st3" d="M167.962,32.773c0.222,0.1,0.405,0.256,0.55,0.471c0.13,0.188,0.215,0.407,0.253,0.657
				c0.022,0.146,0.032,0.356,0.028,0.631h-2.316c0.013,0.319,0.124,0.542,0.332,0.671c0.127,0.08,0.28,0.119,0.459,0.119
				c0.189,0,0.343-0.048,0.462-0.146c0.064-0.053,0.121-0.125,0.171-0.219h0.849c-0.022,0.188-0.125,0.38-0.309,0.575
				c-0.284,0.309-0.684,0.464-1.196,0.464c-0.423,0-0.796-0.131-1.12-0.392c-0.323-0.261-0.485-0.686-0.485-1.273
				c0-0.551,0.146-0.973,0.438-1.267s0.671-0.441,1.137-0.441C167.492,32.623,167.741,32.673,167.962,32.773z M166.719,33.491
				c-0.118,0.121-0.191,0.285-0.222,0.492h1.433c-0.016-0.221-0.089-0.388-0.222-0.502s-0.297-0.172-0.493-0.172
				C167.001,33.309,166.836,33.369,166.719,33.491z"/>
			<path class="st3" d="M170.075,34.873c0.018,0.147,0.056,0.252,0.114,0.314c0.104,0.111,0.295,0.166,0.574,0.166
				c0.164,0,0.295-0.024,0.392-0.072c0.097-0.049,0.145-0.122,0.145-0.219c0-0.094-0.039-0.165-0.116-0.213
				c-0.078-0.049-0.368-0.133-0.87-0.251c-0.361-0.09-0.616-0.201-0.764-0.336c-0.148-0.132-0.222-0.322-0.222-0.571
				c0-0.294,0.115-0.546,0.347-0.758c0.23-0.211,0.556-0.316,0.975-0.316c0.397,0,0.722,0.079,0.972,0.238
				c0.251,0.158,0.395,0.432,0.432,0.821h-0.831c-0.012-0.107-0.042-0.191-0.091-0.254c-0.092-0.113-0.248-0.169-0.469-0.169
				c-0.181,0-0.311,0.027-0.387,0.084c-0.077,0.057-0.116,0.123-0.116,0.198c0,0.096,0.041,0.165,0.123,0.207
				c0.082,0.045,0.371,0.122,0.868,0.23c0.331,0.078,0.579,0.196,0.745,0.354c0.163,0.159,0.245,0.358,0.245,0.598
				c0,0.315-0.118,0.572-0.353,0.771c-0.235,0.199-0.598,0.3-1.089,0.3c-0.501,0-0.871-0.106-1.109-0.317
				c-0.239-0.211-0.358-0.479-0.358-0.806H170.075z"/>
			<path class="st3" d="M172.563,33.329v-0.592h0.443v-0.887h0.822v0.887h0.517v0.592h-0.517v1.681c0,0.13,0.017,0.211,0.05,0.243
				s0.135,0.049,0.304,0.049c0.025,0,0.052-0.001,0.08-0.002s0.056-0.002,0.083-0.004v0.621l-0.394,0.015
				c-0.394,0.014-0.661-0.055-0.806-0.204c-0.093-0.096-0.14-0.242-0.14-0.44v-1.958H172.563z"/>
			<path class="st3" d="M174.742,33.828h1.628v0.788h-1.628V33.828z"/>
			<path class="st3" d="M178.052,32.328h-0.844v-0.767h0.844V32.328z M177.208,32.708h0.844v3.18h-0.844V32.708z"/>
			<path class="st3" d="M181.523,32.891c0.208,0.172,0.313,0.457,0.313,0.855v2.142h-0.852v-1.934c0-0.168-0.022-0.296-0.067-0.386
				c-0.081-0.163-0.235-0.245-0.463-0.245c-0.28,0-0.472,0.12-0.576,0.359c-0.055,0.126-0.081,0.287-0.081,0.484v1.721h-0.832v-3.174
				h0.806v0.464c0.106-0.163,0.207-0.281,0.302-0.354c0.171-0.128,0.387-0.192,0.648-0.192
				C181.047,32.632,181.315,32.718,181.523,32.891z"/>
			<path class="st3" d="M182.614,33.828h1.628v0.788h-1.628V33.828z"/>
			<path class="st3" d="M185.631,32.037c0.346-0.354,0.787-0.531,1.321-0.531c0.716,0,1.239,0.237,1.57,0.712
				c0.183,0.267,0.281,0.534,0.295,0.803h-0.899c-0.057-0.207-0.13-0.362-0.22-0.467c-0.16-0.188-0.397-0.28-0.712-0.28
				c-0.319,0-0.572,0.132-0.757,0.396c-0.185,0.263-0.277,0.636-0.277,1.118s0.098,0.844,0.292,1.084
				c0.195,0.24,0.443,0.36,0.744,0.36c0.308,0,0.543-0.104,0.705-0.31c0.089-0.11,0.163-0.276,0.222-0.498h0.894
				c-0.077,0.468-0.274,0.85-0.591,1.143c-0.316,0.294-0.722,0.44-1.216,0.44c-0.612,0-1.094-0.198-1.443-0.595
				c-0.351-0.398-0.525-0.945-0.525-1.64C185.034,33.023,185.233,32.444,185.631,32.037z"/>
			<path class="st3" d="M190.437,35.888h-0.832v-4.3h0.832V35.888z"/>
			<path class="st3" d="M192.645,33.954c0.155-0.02,0.266-0.044,0.332-0.073c0.12-0.051,0.18-0.13,0.18-0.236
				c0-0.131-0.046-0.221-0.138-0.27c-0.092-0.05-0.227-0.075-0.403-0.075c-0.199,0-0.341,0.049-0.423,0.146
				c-0.06,0.071-0.099,0.169-0.119,0.291h-0.802c0.018-0.277,0.096-0.506,0.234-0.686c0.221-0.279,0.6-0.42,1.137-0.42
				c0.35,0,0.66,0.069,0.932,0.207c0.271,0.139,0.407,0.399,0.407,0.782v1.458c0,0.102,0.002,0.225,0.006,0.368
				c0.006,0.108,0.022,0.183,0.05,0.222s0.068,0.071,0.122,0.097v0.122h-0.904c-0.025-0.064-0.043-0.124-0.052-0.181
				c-0.01-0.057-0.018-0.121-0.023-0.192c-0.116,0.124-0.249,0.23-0.399,0.317c-0.18,0.104-0.384,0.155-0.61,0.155
				c-0.29,0-0.528-0.083-0.718-0.247c-0.188-0.164-0.283-0.397-0.283-0.698c0-0.391,0.152-0.674,0.456-0.849
				c0.166-0.096,0.411-0.164,0.734-0.205L192.645,33.954z M193.154,34.342c-0.054,0.033-0.107,0.06-0.161,0.08
				c-0.055,0.021-0.129,0.039-0.224,0.057l-0.189,0.035c-0.177,0.031-0.305,0.069-0.382,0.114c-0.131,0.075-0.196,0.193-0.196,0.353
				c0,0.142,0.04,0.244,0.12,0.308c0.079,0.063,0.177,0.095,0.291,0.095c0.182,0,0.35-0.053,0.503-0.157
				c0.152-0.105,0.232-0.297,0.238-0.574V34.342z"/>
			<path class="st3" d="M195.497,34.873c0.018,0.147,0.056,0.252,0.114,0.314c0.104,0.111,0.295,0.166,0.574,0.166
				c0.164,0,0.295-0.024,0.392-0.072c0.097-0.049,0.145-0.122,0.145-0.219c0-0.094-0.039-0.165-0.116-0.213
				c-0.078-0.049-0.368-0.133-0.87-0.251c-0.361-0.09-0.616-0.201-0.764-0.336c-0.148-0.132-0.222-0.322-0.222-0.571
				c0-0.294,0.115-0.546,0.347-0.758c0.23-0.211,0.556-0.316,0.975-0.316c0.397,0,0.722,0.079,0.972,0.238
				c0.251,0.158,0.395,0.432,0.432,0.821h-0.831c-0.012-0.107-0.042-0.191-0.091-0.254c-0.092-0.113-0.248-0.169-0.469-0.169
				c-0.181,0-0.311,0.027-0.387,0.084c-0.077,0.057-0.116,0.123-0.116,0.198c0,0.096,0.041,0.165,0.123,0.207
				c0.082,0.045,0.371,0.122,0.868,0.23c0.331,0.078,0.579,0.196,0.745,0.354c0.163,0.159,0.245,0.358,0.245,0.598
				c0,0.315-0.118,0.572-0.353,0.771c-0.235,0.199-0.598,0.3-1.089,0.3c-0.501,0-0.871-0.106-1.109-0.317
				c-0.239-0.211-0.358-0.479-0.358-0.806H195.497z"/>
			<path class="st3" d="M198.958,34.873c0.018,0.147,0.056,0.252,0.114,0.314c0.104,0.111,0.295,0.166,0.574,0.166
				c0.164,0,0.295-0.024,0.392-0.072c0.097-0.049,0.145-0.122,0.145-0.219c0-0.094-0.039-0.165-0.116-0.213
				c-0.078-0.049-0.368-0.133-0.87-0.251c-0.361-0.09-0.616-0.201-0.764-0.336c-0.148-0.132-0.222-0.322-0.222-0.571
				c0-0.294,0.115-0.546,0.347-0.758c0.23-0.211,0.556-0.316,0.975-0.316c0.397,0,0.722,0.079,0.972,0.238
				c0.251,0.158,0.395,0.432,0.432,0.821h-0.831c-0.012-0.107-0.042-0.191-0.091-0.254c-0.092-0.113-0.248-0.169-0.469-0.169
				c-0.181,0-0.311,0.027-0.387,0.084c-0.077,0.057-0.116,0.123-0.116,0.198c0,0.096,0.041,0.165,0.123,0.207
				c0.082,0.045,0.371,0.122,0.868,0.23c0.331,0.078,0.579,0.196,0.745,0.354c0.163,0.159,0.245,0.358,0.245,0.598
				c0,0.315-0.118,0.572-0.353,0.771c-0.235,0.199-0.598,0.3-1.089,0.3c-0.501,0-0.871-0.106-1.109-0.317
				c-0.239-0.211-0.358-0.479-0.358-0.806H198.958z"/>
		</g>
		<g>
			<path class="st3" d="M168.076,39.519H165.8v0.913h2.089v0.747H165.8v1.105h2.381v0.773h-3.259v-4.301h3.153V39.519z"/>
			<path class="st3" d="M168.718,43.058l1.086-1.61l-1.039-1.563h1.019l0.531,0.921l0.519-0.921h0.989l-1.045,1.549l1.086,1.625
				h-1.036l-0.547-0.956l-0.553,0.956H168.718z"/>
			<path class="st3" d="M175.147,40.219c0.259,0.274,0.389,0.677,0.389,1.208c0,0.561-0.127,0.987-0.38,1.281
				c-0.254,0.293-0.58,0.44-0.979,0.44c-0.255,0-0.466-0.063-0.634-0.19c-0.093-0.069-0.183-0.172-0.271-0.306v1.657h-0.823v-4.432
				h0.797v0.47c0.09-0.139,0.186-0.247,0.288-0.327c0.186-0.142,0.407-0.213,0.663-0.213
				C174.571,39.808,174.887,39.945,175.147,40.219z M174.508,40.818c-0.112-0.189-0.296-0.283-0.55-0.283
				c-0.304,0-0.514,0.143-0.627,0.429c-0.06,0.151-0.089,0.345-0.089,0.577c0,0.37,0.1,0.63,0.298,0.779
				c0.117,0.088,0.257,0.132,0.418,0.132c0.234,0,0.412-0.09,0.535-0.269s0.185-0.417,0.185-0.715
				C174.678,41.223,174.621,41.006,174.508,40.818z"/>
			<path class="st3" d="M178.391,39.943c0.222,0.099,0.405,0.256,0.55,0.47c0.13,0.189,0.215,0.408,0.253,0.658
				c0.022,0.146,0.032,0.356,0.028,0.631h-2.316c0.013,0.318,0.124,0.542,0.332,0.671c0.127,0.08,0.28,0.119,0.459,0.119
				c0.189,0,0.343-0.048,0.462-0.146c0.064-0.053,0.121-0.125,0.171-0.219h0.849c-0.022,0.188-0.125,0.38-0.309,0.575
				c-0.284,0.309-0.684,0.464-1.196,0.464c-0.423,0-0.796-0.131-1.12-0.392c-0.323-0.261-0.485-0.686-0.485-1.273
				c0-0.551,0.146-0.973,0.438-1.267s0.671-0.441,1.137-0.441C177.92,39.793,178.169,39.843,178.391,39.943z M177.148,40.66
				c-0.118,0.121-0.191,0.285-0.222,0.492h1.433c-0.016-0.221-0.089-0.388-0.222-0.502s-0.297-0.172-0.493-0.172
				C177.43,40.479,177.265,40.539,177.148,40.66z"/>
			<path class="st3" d="M181.623,39.803c0.011,0.001,0.035,0.003,0.071,0.005v0.852c-0.052-0.006-0.099-0.01-0.14-0.012
				s-0.074-0.003-0.1-0.003c-0.334,0-0.559,0.109-0.674,0.327c-0.063,0.122-0.096,0.312-0.096,0.566v1.52h-0.838v-3.18h0.794v0.554
				c0.128-0.212,0.24-0.356,0.336-0.435c0.155-0.13,0.357-0.195,0.606-0.195C181.6,39.802,181.613,39.802,181.623,39.803z"/>
			<path class="st3" d="M183.139,39.498h-0.844v-0.767h0.844V39.498z M182.295,39.878h0.844v3.18h-0.844V39.878z"/>
			<path class="st3" d="M186.171,39.943c0.222,0.099,0.405,0.256,0.55,0.47c0.13,0.189,0.215,0.408,0.253,0.658
				c0.022,0.146,0.032,0.356,0.028,0.631h-2.316c0.013,0.318,0.124,0.542,0.332,0.671c0.127,0.08,0.28,0.119,0.459,0.119
				c0.189,0,0.343-0.048,0.462-0.146c0.064-0.053,0.121-0.125,0.171-0.219h0.849c-0.022,0.188-0.125,0.38-0.309,0.575
				c-0.284,0.309-0.684,0.464-1.196,0.464c-0.423,0-0.796-0.131-1.12-0.392c-0.323-0.261-0.485-0.686-0.485-1.273
				c0-0.551,0.146-0.973,0.438-1.267s0.671-0.441,1.137-0.441C185.701,39.793,185.95,39.843,186.171,39.943z M184.928,40.66
				c-0.118,0.121-0.191,0.285-0.222,0.492h1.433c-0.016-0.221-0.089-0.388-0.222-0.502s-0.297-0.172-0.493-0.172
				C185.21,40.479,185.045,40.539,184.928,40.66z"/>
			<path class="st3" d="M190.196,40.06c0.208,0.173,0.313,0.458,0.313,0.856v2.142h-0.852v-1.935c0-0.167-0.022-0.295-0.067-0.385
				c-0.081-0.163-0.235-0.245-0.463-0.245c-0.28,0-0.472,0.119-0.576,0.358c-0.055,0.127-0.081,0.288-0.081,0.484v1.722h-0.832
				v-3.174h0.806v0.464c0.106-0.164,0.207-0.281,0.302-0.354c0.171-0.128,0.387-0.192,0.648-0.192
				C189.72,39.802,189.988,39.888,190.196,40.06z"/>
			<path class="st3" d="M193.315,41.019c-0.016-0.119-0.056-0.226-0.12-0.321c-0.093-0.128-0.238-0.192-0.436-0.192
				c-0.28,0-0.473,0.139-0.576,0.417c-0.055,0.147-0.082,0.344-0.082,0.588c0,0.233,0.027,0.42,0.082,0.562
				c0.1,0.265,0.287,0.397,0.562,0.397c0.195,0,0.334-0.053,0.415-0.158c0.082-0.104,0.132-0.241,0.149-0.408h0.85
				c-0.02,0.253-0.111,0.492-0.275,0.718c-0.261,0.363-0.646,0.546-1.159,0.546c-0.512,0-0.889-0.152-1.13-0.456
				c-0.241-0.303-0.362-0.696-0.362-1.18c0-0.546,0.134-0.97,0.4-1.273s0.635-0.455,1.104-0.455c0.399,0,0.726,0.09,0.98,0.269
				c0.254,0.179,0.404,0.495,0.451,0.948H193.315z"/>
			<path class="st3" d="M196.981,39.943c0.222,0.099,0.405,0.256,0.55,0.47c0.13,0.189,0.215,0.408,0.253,0.658
				c0.022,0.146,0.032,0.356,0.028,0.631h-2.316c0.013,0.318,0.124,0.542,0.332,0.671c0.127,0.08,0.28,0.119,0.459,0.119
				c0.189,0,0.343-0.048,0.462-0.146c0.064-0.053,0.121-0.125,0.171-0.219h0.849c-0.022,0.188-0.125,0.38-0.309,0.575
				c-0.284,0.309-0.684,0.464-1.196,0.464c-0.423,0-0.796-0.131-1.12-0.392c-0.323-0.261-0.485-0.686-0.485-1.273
				c0-0.551,0.146-0.973,0.438-1.267s0.671-0.441,1.137-0.441C196.51,39.793,196.759,39.843,196.981,39.943z M195.738,40.66
				c-0.118,0.121-0.191,0.285-0.222,0.492h1.433c-0.016-0.221-0.089-0.388-0.222-0.502s-0.297-0.172-0.493-0.172
				C196.02,40.479,195.855,40.539,195.738,40.66z"/>
		</g>
		<circle class="st4" cx="181.006" cy="36.624" r="23.911"/>
	</g>
	<path id="equal" class="st0" d="M136.391,38.597h6.319v-1.535h-6.319V38.597z M136.391,35.872h6.319v-1.535h-6.319V35.872z"/>
	<g id="second-circle">
		<g>
			<path class="st5" d="M81.125,31.989h1.017l1.521,4.3H82.69l-0.284-0.884h-1.584l-0.291,0.884h-0.94L81.125,31.989z M81.067,34.663
				h1.101l-0.543-1.692L81.067,34.663z"/>
			<path class="st5" d="M85.667,33.109h0.843l0.484,2.29l0.496-2.29h0.866l-0.922,3.18H86.58l-0.499-2.316l-0.505,2.316h-0.863
				l-0.893-3.18h0.893l0.496,2.281L85.667,33.109z"/>
			<path class="st5" d="M90.159,34.355c0.155-0.02,0.266-0.044,0.332-0.073c0.12-0.051,0.18-0.13,0.18-0.236
				c0-0.131-0.046-0.221-0.138-0.27c-0.092-0.05-0.227-0.075-0.403-0.075c-0.199,0-0.341,0.049-0.423,0.146
				c-0.06,0.071-0.099,0.169-0.119,0.291h-0.802c0.018-0.277,0.096-0.506,0.234-0.686c0.221-0.279,0.6-0.42,1.137-0.42
				c0.35,0,0.66,0.069,0.932,0.207c0.271,0.139,0.407,0.399,0.407,0.782v1.458c0,0.102,0.002,0.225,0.006,0.368
				c0.006,0.108,0.022,0.183,0.05,0.222s0.068,0.071,0.122,0.097v0.122h-0.904c-0.025-0.064-0.043-0.124-0.052-0.181
				c-0.01-0.057-0.018-0.121-0.023-0.192c-0.116,0.124-0.249,0.23-0.399,0.317c-0.18,0.104-0.384,0.155-0.61,0.155
				c-0.29,0-0.528-0.083-0.718-0.247c-0.188-0.164-0.283-0.397-0.283-0.698c0-0.392,0.152-0.674,0.456-0.849
				c0.166-0.096,0.411-0.164,0.734-0.205L90.159,34.355z M90.667,34.743c-0.054,0.033-0.107,0.06-0.161,0.08
				c-0.055,0.021-0.129,0.039-0.224,0.057l-0.189,0.035c-0.177,0.031-0.305,0.068-0.382,0.113c-0.131,0.076-0.196,0.193-0.196,0.354
				c0,0.142,0.04,0.244,0.12,0.308c0.079,0.063,0.177,0.095,0.291,0.095c0.182,0,0.35-0.053,0.503-0.157
				c0.152-0.105,0.232-0.297,0.238-0.575V34.743z"/>
			<path class="st5" d="M94.138,33.035c0.011,0.001,0.035,0.002,0.071,0.004v0.853c-0.052-0.006-0.099-0.01-0.14-0.012
				s-0.074-0.003-0.1-0.003c-0.334,0-0.559,0.108-0.674,0.326c-0.063,0.123-0.096,0.312-0.096,0.566v1.52h-0.838v-3.18h0.794v0.554
				c0.128-0.212,0.24-0.356,0.336-0.435c0.155-0.13,0.357-0.195,0.606-0.195C94.115,33.033,94.127,33.034,94.138,33.035z"/>
			<path class="st5" d="M96.521,33.16c0.149,0.085,0.271,0.202,0.365,0.352v-1.517h0.843v4.294H96.92v-0.44
				c-0.118,0.188-0.254,0.326-0.405,0.411c-0.151,0.086-0.34,0.129-0.565,0.129c-0.372,0-0.685-0.15-0.938-0.451
				s-0.381-0.687-0.381-1.156c0-0.543,0.125-0.97,0.375-1.281c0.25-0.311,0.584-0.467,1.002-0.467
				C96.2,33.033,96.371,33.076,96.521,33.16z M96.725,35.425c0.123-0.175,0.184-0.401,0.184-0.68c0-0.389-0.098-0.667-0.294-0.835
				c-0.121-0.101-0.261-0.151-0.42-0.151c-0.243,0-0.422,0.092-0.536,0.275c-0.113,0.185-0.17,0.412-0.17,0.685
				c0,0.293,0.058,0.528,0.173,0.704c0.116,0.176,0.292,0.265,0.527,0.265C96.423,35.688,96.603,35.6,96.725,35.425z"/>
			<path class="st5" d="M100.796,31.989l0.567,2.462l0.124,0.686l0.124-0.671l0.485-2.477h0.948l0.512,2.462l0.131,0.686l0.133-0.659
				l0.573-2.488h0.914l-1.209,4.3h-0.86l-0.52-2.515l-0.152-0.831l-0.151,0.831l-0.52,2.515h-0.834l-1.22-4.3H100.796z"/>
			<path class="st5" d="M106.783,32.729h-0.844v-0.767h0.844V32.729z M105.939,33.109h0.844v3.18h-0.844V33.109z"/>
			<path class="st5" d="M110.253,33.291c0.208,0.172,0.313,0.457,0.313,0.855v2.142h-0.852v-1.934c0-0.168-0.022-0.296-0.067-0.386
				c-0.081-0.163-0.235-0.245-0.463-0.245c-0.28,0-0.472,0.12-0.576,0.359c-0.055,0.126-0.081,0.287-0.081,0.484v1.721h-0.832v-3.174
				h0.806v0.464c0.106-0.163,0.207-0.281,0.302-0.354c0.171-0.128,0.387-0.192,0.648-0.192
				C109.778,33.033,110.045,33.118,110.253,33.291z"/>
			<path class="st5" d="M114.016,33.291c0.208,0.172,0.313,0.457,0.313,0.855v2.142h-0.852v-1.934c0-0.168-0.022-0.296-0.067-0.386
				c-0.081-0.163-0.235-0.245-0.463-0.245c-0.28,0-0.472,0.12-0.576,0.359c-0.055,0.126-0.081,0.287-0.081,0.484v1.721h-0.832v-3.174
				h0.806v0.464c0.106-0.163,0.207-0.281,0.302-0.354c0.171-0.128,0.387-0.192,0.648-0.192
				C113.54,33.033,113.808,33.118,114.016,33.291z"/>
			<path class="st5" d="M116.07,32.729h-0.844v-0.767h0.844V32.729z M115.226,33.109h0.844v3.18h-0.844V33.109z"/>
			<path class="st5" d="M119.54,33.291c0.208,0.172,0.313,0.457,0.313,0.855v2.142h-0.852v-1.934c0-0.168-0.022-0.296-0.067-0.386
				c-0.081-0.163-0.235-0.245-0.463-0.245c-0.28,0-0.472,0.12-0.576,0.359c-0.055,0.126-0.081,0.287-0.081,0.484v1.721h-0.832v-3.174
				h0.806v0.464c0.106-0.163,0.207-0.281,0.302-0.354c0.171-0.128,0.387-0.192,0.648-0.192
				C119.065,33.033,119.332,33.118,119.54,33.291z"/>
			<path class="st5" d="M122.336,33.106c0.202,0.084,0.365,0.237,0.49,0.461v-0.458h0.811v3.017c0,0.41-0.069,0.72-0.207,0.928
				c-0.237,0.357-0.692,0.536-1.365,0.536c-0.407,0-0.738-0.079-0.995-0.239c-0.257-0.159-0.398-0.397-0.426-0.714h0.904
				c0.023,0.097,0.062,0.167,0.113,0.21c0.09,0.075,0.24,0.113,0.453,0.113c0.299,0,0.499-0.1,0.601-0.301
				c0.066-0.128,0.1-0.344,0.1-0.647v-0.204c-0.08,0.136-0.166,0.238-0.257,0.307c-0.166,0.126-0.381,0.189-0.646,0.189
				c-0.408,0-0.734-0.144-0.979-0.431c-0.244-0.286-0.366-0.675-0.366-1.165c0-0.473,0.118-0.87,0.353-1.191
				c0.235-0.322,0.568-0.483,1-0.483C122.079,33.033,122.218,33.057,122.336,33.106z M122.619,35.385
				c0.134-0.146,0.201-0.381,0.201-0.701c0-0.302-0.063-0.531-0.19-0.688s-0.297-0.236-0.51-0.236c-0.291,0-0.491,0.137-0.602,0.411
				c-0.059,0.146-0.088,0.326-0.088,0.54c0,0.185,0.031,0.349,0.094,0.493c0.112,0.269,0.313,0.402,0.604,0.402
				C122.323,35.606,122.486,35.533,122.619,35.385z"/>
		</g>
		<g>
			<path class="st5" d="M90.063,39.616c0.132,0.184,0.197,0.402,0.197,0.657c0,0.263-0.066,0.474-0.198,0.633
				c-0.074,0.09-0.184,0.171-0.328,0.245c0.219,0.08,0.385,0.206,0.496,0.379c0.112,0.174,0.168,0.384,0.168,0.631
				c0,0.255-0.063,0.483-0.191,0.686c-0.081,0.134-0.183,0.247-0.305,0.338c-0.138,0.105-0.299,0.177-0.486,0.216
				c-0.187,0.039-0.389,0.059-0.607,0.059H86.87v-4.301h2.078C89.473,39.165,89.844,39.319,90.063,39.616z M87.728,39.905v0.948
				h1.046c0.187,0,0.338-0.035,0.454-0.106s0.175-0.197,0.175-0.378c0-0.2-0.077-0.332-0.23-0.396
				c-0.133-0.045-0.303-0.067-0.509-0.067H87.728z M87.728,41.565v1.146h1.044c0.187,0,0.332-0.025,0.436-0.075
				c0.188-0.094,0.283-0.272,0.283-0.537c0-0.224-0.092-0.378-0.274-0.461c-0.102-0.047-0.245-0.071-0.43-0.073H87.728z"/>
			<path class="st5" d="M93.002,40.203c0.011,0.001,0.035,0.003,0.071,0.005v0.852c-0.052-0.006-0.099-0.01-0.14-0.012
				s-0.074-0.003-0.1-0.003c-0.334,0-0.559,0.109-0.674,0.327c-0.063,0.122-0.096,0.312-0.096,0.566v1.52h-0.838v-3.18h0.794v0.554
				c0.128-0.212,0.24-0.356,0.336-0.435c0.155-0.13,0.357-0.195,0.606-0.195C92.979,40.202,92.992,40.202,93.002,40.203z"/>
			<path class="st5" d="M96.344,43.07c-0.269,0.331-0.676,0.497-1.223,0.497c-0.546,0-0.954-0.166-1.223-0.497
				c-0.268-0.332-0.402-0.73-0.402-1.197c0-0.458,0.135-0.855,0.402-1.192c0.269-0.336,0.677-0.504,1.223-0.504
				c0.547,0,0.954,0.168,1.223,0.504c0.269,0.337,0.402,0.734,0.402,1.192C96.746,42.339,96.613,42.738,96.344,43.07z M95.679,42.61
				c0.13-0.173,0.195-0.419,0.195-0.737s-0.065-0.563-0.195-0.735c-0.131-0.172-0.317-0.258-0.561-0.258s-0.43,0.086-0.562,0.258
				c-0.131,0.172-0.197,0.417-0.197,0.735s0.066,0.564,0.197,0.737c0.132,0.173,0.318,0.26,0.562,0.26S95.548,42.783,95.679,42.61z"
				/>
			<path class="st5" d="M97.47,39.172h0.817v2.32l1.049-1.199h1.034l-1.141,1.185l1.185,1.98h-1.012L98.632,42.1l-0.345,0.357v1.001
				H97.47V39.172z"/>
			<path class="st5" d="M102.934,40.343c0.222,0.099,0.405,0.256,0.55,0.47c0.13,0.189,0.215,0.408,0.253,0.658
				c0.022,0.146,0.032,0.356,0.028,0.631h-2.316c0.013,0.318,0.124,0.542,0.332,0.671c0.127,0.08,0.28,0.119,0.459,0.119
				c0.189,0,0.343-0.048,0.462-0.146c0.064-0.053,0.121-0.125,0.171-0.219h0.849c-0.022,0.188-0.125,0.38-0.309,0.575
				c-0.284,0.309-0.684,0.464-1.196,0.464c-0.423,0-0.796-0.131-1.12-0.392c-0.323-0.261-0.485-0.686-0.485-1.273
				c0-0.551,0.146-0.973,0.438-1.267s0.671-0.441,1.137-0.441C102.463,40.194,102.712,40.243,102.934,40.343z M101.691,41.061
				c-0.118,0.121-0.191,0.285-0.222,0.492h1.433c-0.016-0.221-0.089-0.388-0.222-0.502s-0.297-0.172-0.493-0.172
				C101.973,40.879,101.808,40.94,101.691,41.061z"/>
			<path class="st5" d="M106.166,40.203c0.011,0.001,0.035,0.003,0.071,0.005v0.852c-0.052-0.006-0.099-0.01-0.14-0.012
				s-0.074-0.003-0.1-0.003c-0.334,0-0.559,0.109-0.674,0.327c-0.063,0.122-0.096,0.312-0.096,0.566v1.52h-0.838v-3.18h0.794v0.554
				c0.128-0.212,0.24-0.356,0.336-0.435c0.155-0.13,0.357-0.195,0.606-0.195C106.143,40.202,106.156,40.202,106.166,40.203z"/>
			<path class="st5" d="M108.134,41.524c0.155-0.02,0.266-0.044,0.332-0.072c0.12-0.051,0.18-0.13,0.18-0.236
				c0-0.131-0.046-0.221-0.138-0.271s-0.227-0.074-0.403-0.074c-0.199,0-0.341,0.049-0.423,0.146c-0.06,0.072-0.099,0.17-0.119,0.292
				h-0.802c0.018-0.278,0.096-0.507,0.234-0.686c0.221-0.28,0.6-0.42,1.137-0.42c0.35,0,0.66,0.069,0.932,0.207
				c0.271,0.139,0.407,0.398,0.407,0.782v1.458c0,0.102,0.002,0.225,0.006,0.368c0.006,0.108,0.022,0.183,0.05,0.222
				s0.068,0.071,0.122,0.097v0.122h-0.904c-0.025-0.064-0.043-0.124-0.052-0.181c-0.01-0.057-0.018-0.121-0.023-0.192
				c-0.116,0.124-0.249,0.23-0.399,0.317c-0.18,0.104-0.384,0.155-0.61,0.155c-0.29,0-0.528-0.083-0.718-0.247
				c-0.188-0.164-0.283-0.397-0.283-0.698c0-0.392,0.152-0.674,0.456-0.85c0.166-0.095,0.411-0.163,0.734-0.204L108.134,41.524z
				 M108.643,41.912c-0.054,0.033-0.107,0.06-0.161,0.08c-0.055,0.021-0.129,0.039-0.224,0.057l-0.189,0.035
				c-0.177,0.031-0.305,0.069-0.382,0.113c-0.131,0.076-0.196,0.194-0.196,0.354c0,0.142,0.04,0.244,0.12,0.308
				c0.079,0.063,0.177,0.095,0.291,0.095c0.182,0,0.35-0.053,0.503-0.157c0.152-0.105,0.232-0.297,0.238-0.575V41.912z"/>
			<path class="st5" d="M111.909,40.276c0.202,0.083,0.365,0.237,0.49,0.461v-0.458h0.811v3.017c0,0.41-0.069,0.72-0.207,0.928
				c-0.237,0.357-0.692,0.536-1.365,0.536c-0.407,0-0.738-0.079-0.995-0.239c-0.257-0.159-0.398-0.397-0.426-0.714h0.904
				c0.023,0.097,0.062,0.167,0.113,0.21c0.09,0.075,0.24,0.113,0.453,0.113c0.299,0,0.499-0.1,0.601-0.301
				c0.066-0.128,0.1-0.344,0.1-0.647v-0.204c-0.08,0.136-0.166,0.238-0.257,0.307c-0.166,0.126-0.381,0.189-0.646,0.189
				c-0.408,0-0.734-0.144-0.979-0.431c-0.244-0.286-0.366-0.675-0.366-1.165c0-0.473,0.118-0.87,0.353-1.192
				c0.235-0.321,0.568-0.482,1-0.482C111.652,40.202,111.79,40.227,111.909,40.276z M112.192,42.555
				c0.134-0.146,0.201-0.38,0.201-0.701c0-0.302-0.063-0.531-0.19-0.688c-0.127-0.158-0.297-0.236-0.51-0.236
				c-0.291,0-0.491,0.137-0.602,0.411c-0.059,0.146-0.088,0.326-0.088,0.54c0,0.185,0.031,0.349,0.094,0.493
				c0.112,0.269,0.313,0.402,0.604,0.402C111.895,42.776,112.058,42.702,112.192,42.555z"/>
			<path class="st5" d="M116.218,40.343c0.222,0.099,0.405,0.256,0.55,0.47c0.13,0.189,0.215,0.408,0.253,0.658
				c0.022,0.146,0.032,0.356,0.028,0.631h-2.316c0.013,0.318,0.124,0.542,0.332,0.671c0.127,0.08,0.28,0.119,0.459,0.119
				c0.189,0,0.343-0.048,0.462-0.146c0.064-0.053,0.121-0.125,0.171-0.219h0.849c-0.022,0.188-0.125,0.38-0.309,0.575
				c-0.284,0.309-0.684,0.464-1.196,0.464c-0.423,0-0.796-0.131-1.12-0.392c-0.323-0.261-0.485-0.686-0.485-1.273
				c0-0.551,0.146-0.973,0.438-1.267s0.671-0.441,1.137-0.441C115.747,40.194,115.996,40.243,116.218,40.343z M114.975,41.061
				c-0.118,0.121-0.191,0.285-0.222,0.492h1.433c-0.016-0.221-0.089-0.388-0.222-0.502s-0.297-0.172-0.493-0.172
				C115.257,40.879,115.092,40.94,114.975,41.061z"/>
		</g>
		<circle class="st6" cx="102.963" cy="36.468" r="28.251"/>
	</g>
	<polygon id="plus" class="st0" points="66.905,37.223 66.905,39.627 68.44,39.627 68.44,37.223 70.832,37.223 70.832,35.7 
		68.44,35.7 68.44,33.308 66.905,33.308 66.905,35.7 64.513,35.7 64.513,37.223 "/>
	<g id="first-circle">
		<g>
			<g>
				<path class="st5" d="M13.284,34.961c0.028,0.196,0.083,0.343,0.164,0.44c0.149,0.177,0.404,0.266,0.766,0.266
					c0.217,0,0.393-0.023,0.527-0.07c0.256-0.09,0.384-0.256,0.384-0.499c0-0.143-0.063-0.252-0.188-0.329
					c-0.126-0.076-0.325-0.144-0.598-0.201l-0.466-0.103c-0.457-0.101-0.771-0.211-0.942-0.33c-0.29-0.198-0.435-0.508-0.435-0.931
					c0-0.385,0.142-0.704,0.425-0.959c0.283-0.255,0.7-0.383,1.249-0.383c0.459,0,0.851,0.12,1.175,0.36
					c0.323,0.24,0.493,0.589,0.509,1.046h-0.863c-0.016-0.259-0.132-0.442-0.347-0.551c-0.144-0.072-0.322-0.108-0.536-0.108
					c-0.237,0-0.426,0.047-0.567,0.14c-0.142,0.094-0.213,0.224-0.213,0.392c0,0.153,0.07,0.269,0.209,0.344
					c0.09,0.051,0.28,0.11,0.572,0.178l0.754,0.179c0.331,0.077,0.579,0.182,0.744,0.312c0.256,0.203,0.385,0.495,0.385,0.879
					c0,0.393-0.152,0.719-0.456,0.979s-0.732,0.39-1.287,0.39c-0.566,0-1.012-0.128-1.336-0.384s-0.486-0.607-0.486-1.055H13.284z"/>
				<path class="st5" d="M17.556,33.109v1.917c0,0.18,0.021,0.316,0.063,0.408c0.075,0.161,0.224,0.242,0.444,0.242
					c0.282,0,0.477-0.115,0.581-0.345c0.054-0.124,0.081-0.288,0.081-0.493v-1.729h0.843v3.18h-0.808v-0.449
					c-0.008,0.01-0.027,0.039-0.059,0.088c-0.031,0.048-0.067,0.091-0.11,0.128c-0.13,0.116-0.256,0.196-0.377,0.239
					s-0.264,0.064-0.426,0.064c-0.47,0-0.786-0.17-0.949-0.508c-0.091-0.187-0.137-0.462-0.137-0.825v-1.917H17.556z"/>
				<path class="st5" d="M23.165,33.45c0.259,0.274,0.389,0.678,0.389,1.208c0,0.56-0.127,0.987-0.38,1.281
					c-0.254,0.293-0.58,0.44-0.979,0.44c-0.255,0-0.466-0.063-0.634-0.19c-0.093-0.069-0.183-0.172-0.271-0.306v1.657h-0.823v-4.432
					h0.797v0.47c0.09-0.139,0.186-0.247,0.288-0.327c0.186-0.142,0.407-0.213,0.663-0.213C22.589,33.038,22.906,33.176,23.165,33.45z
					 M22.527,34.048c-0.112-0.188-0.296-0.283-0.55-0.283c-0.304,0-0.514,0.143-0.627,0.429c-0.06,0.152-0.089,0.345-0.089,0.578
					c0,0.369,0.1,0.629,0.298,0.778c0.117,0.088,0.257,0.132,0.418,0.132c0.234,0,0.412-0.09,0.535-0.269s0.185-0.417,0.185-0.715
					C22.697,34.453,22.64,34.237,22.527,34.048z"/>
				<path class="st5" d="M26.41,33.173c0.222,0.1,0.405,0.256,0.55,0.471c0.13,0.188,0.215,0.407,0.253,0.657
					c0.022,0.146,0.032,0.356,0.028,0.631h-2.316c0.013,0.318,0.124,0.542,0.332,0.671c0.127,0.08,0.28,0.119,0.459,0.119
					c0.189,0,0.343-0.048,0.462-0.146c0.064-0.053,0.121-0.125,0.171-0.219h0.849c-0.022,0.188-0.125,0.38-0.309,0.575
					c-0.284,0.309-0.684,0.464-1.196,0.464c-0.423,0-0.796-0.131-1.12-0.392c-0.323-0.261-0.485-0.686-0.485-1.273
					c0-0.551,0.146-0.973,0.438-1.267s0.671-0.441,1.137-0.441C25.939,33.024,26.188,33.074,26.41,33.173z M25.166,33.891
					c-0.118,0.121-0.191,0.285-0.222,0.492h1.433c-0.016-0.221-0.089-0.388-0.222-0.502s-0.297-0.172-0.493-0.172
					C25.449,33.709,25.284,33.77,25.166,33.891z"/>
				<path class="st5" d="M29.642,33.035c0.011,0.001,0.035,0.002,0.071,0.004v0.853c-0.052-0.006-0.099-0.01-0.14-0.012
					s-0.074-0.003-0.1-0.003c-0.334,0-0.559,0.108-0.674,0.326c-0.063,0.123-0.096,0.312-0.096,0.566v1.52h-0.838v-3.18h0.794v0.554
					c0.128-0.212,0.24-0.356,0.336-0.435c0.155-0.13,0.357-0.195,0.606-0.195C29.618,33.033,29.631,33.034,29.642,33.035z"/>
				<path class="st5" d="M31.158,32.729h-0.844v-0.767h0.844V32.729z M30.314,33.109h0.844v3.18h-0.844V33.109z"/>
				<path class="st5" d="M34.745,35.9c-0.269,0.331-0.676,0.497-1.223,0.497c-0.546,0-0.954-0.166-1.223-0.497
					c-0.268-0.332-0.402-0.73-0.402-1.196c0-0.459,0.135-0.856,0.402-1.192c0.269-0.337,0.677-0.505,1.223-0.505
					c0.547,0,0.954,0.168,1.223,0.505c0.269,0.336,0.402,0.733,0.402,1.192C35.148,35.169,35.014,35.568,34.745,35.9z M34.08,35.44
					c0.13-0.173,0.195-0.418,0.195-0.736c0-0.319-0.065-0.564-0.195-0.736c-0.131-0.172-0.317-0.258-0.561-0.258
					s-0.43,0.086-0.562,0.258c-0.131,0.172-0.197,0.417-0.197,0.736c0,0.318,0.066,0.563,0.197,0.736
					c0.132,0.173,0.318,0.26,0.562,0.26S33.95,35.613,34.08,35.44z"/>
				<path class="st5" d="M37.647,33.035c0.011,0.001,0.035,0.002,0.071,0.004v0.853c-0.052-0.006-0.099-0.01-0.14-0.012
					s-0.074-0.003-0.1-0.003c-0.334,0-0.559,0.108-0.674,0.326c-0.063,0.123-0.096,0.312-0.096,0.566v1.52h-0.838v-3.18h0.794v0.554
					c0.128-0.212,0.24-0.356,0.336-0.435c0.155-0.13,0.357-0.195,0.606-0.195C37.623,33.033,37.636,33.034,37.647,33.035z"/>
				<path class="st5" d="M42.82,34.427c-0.251,0.21-0.611,0.315-1.078,0.315h-0.896v1.546h-0.893v-4.3H41.8
					c0.426,0,0.765,0.11,1.018,0.332s0.38,0.565,0.38,1.03C43.198,33.859,43.072,34.217,42.82,34.427z M42.134,32.878
					c-0.113-0.096-0.273-0.144-0.479-0.144h-0.81v1.267h0.81c0.205,0,0.365-0.052,0.479-0.154c0.114-0.104,0.171-0.267,0.171-0.49
					S42.248,32.973,42.134,32.878z"/>
				<path class="st5" d="M44.76,36.288h-0.832v-4.3h0.832V36.288z"/>
				<path class="st5" d="M46.974,34.355c0.155-0.02,0.266-0.044,0.332-0.073c0.12-0.051,0.18-0.13,0.18-0.236
					c0-0.131-0.046-0.221-0.138-0.27c-0.092-0.05-0.227-0.075-0.403-0.075c-0.199,0-0.341,0.049-0.423,0.146
					c-0.06,0.071-0.099,0.169-0.119,0.291h-0.802c0.018-0.277,0.096-0.506,0.234-0.686c0.221-0.279,0.6-0.42,1.137-0.42
					c0.35,0,0.66,0.069,0.932,0.207c0.271,0.139,0.407,0.399,0.407,0.782v1.458c0,0.102,0.002,0.225,0.006,0.368
					c0.006,0.108,0.022,0.183,0.05,0.222s0.068,0.071,0.122,0.097v0.122h-0.904c-0.025-0.064-0.043-0.124-0.052-0.181
					c-0.01-0.057-0.018-0.121-0.023-0.192c-0.116,0.124-0.249,0.23-0.399,0.317c-0.18,0.104-0.384,0.155-0.61,0.155
					c-0.29,0-0.528-0.083-0.718-0.247c-0.188-0.164-0.283-0.397-0.283-0.698c0-0.392,0.152-0.674,0.456-0.849
					c0.166-0.096,0.411-0.164,0.734-0.205L46.974,34.355z M47.483,34.743c-0.054,0.033-0.107,0.06-0.161,0.08
					c-0.055,0.021-0.129,0.039-0.224,0.057l-0.189,0.035c-0.177,0.031-0.305,0.068-0.382,0.113c-0.131,0.076-0.196,0.193-0.196,0.354
					c0,0.142,0.04,0.244,0.12,0.308c0.079,0.063,0.177,0.095,0.291,0.095c0.182,0,0.35-0.053,0.503-0.157
					c0.152-0.105,0.232-0.297,0.238-0.575V34.743z"/>
				<path class="st5" d="M51.74,33.291c0.208,0.172,0.313,0.457,0.313,0.855v2.142h-0.852v-1.934c0-0.168-0.022-0.296-0.067-0.386
					c-0.081-0.163-0.235-0.245-0.463-0.245c-0.28,0-0.472,0.12-0.576,0.359c-0.055,0.126-0.081,0.287-0.081,0.484v1.721h-0.832
					v-3.174h0.806v0.464c0.106-0.163,0.207-0.281,0.302-0.354c0.171-0.128,0.387-0.192,0.648-0.192
					C51.264,33.033,51.532,33.118,51.74,33.291z"/>
			</g>
			<g>
				<path class="st5" d="M12.075,39.158h1.017l1.521,4.301h-0.974l-0.284-0.884h-1.584l-0.291,0.884h-0.94L12.075,39.158z
					 M12.016,41.833h1.101l-0.543-1.692L12.016,41.833z"/>
				<path class="st5" d="M16.858,40.329c0.149,0.085,0.271,0.202,0.365,0.352v-1.518h0.843v4.295h-0.809v-0.44
					c-0.118,0.188-0.254,0.326-0.405,0.411c-0.151,0.086-0.34,0.129-0.565,0.129c-0.372,0-0.685-0.15-0.938-0.451
					s-0.381-0.687-0.381-1.157c0-0.542,0.125-0.969,0.375-1.28s0.584-0.467,1.002-0.467C16.536,40.202,16.708,40.244,16.858,40.329z
					 M17.062,42.595c0.123-0.176,0.184-0.402,0.184-0.68c0-0.39-0.098-0.667-0.294-0.835c-0.121-0.101-0.261-0.151-0.42-0.151
					c-0.243,0-0.422,0.092-0.536,0.275c-0.113,0.184-0.17,0.412-0.17,0.685c0,0.293,0.058,0.528,0.173,0.704
					c0.116,0.176,0.292,0.265,0.527,0.265C16.76,42.858,16.94,42.77,17.062,42.595z"/>
				<path class="st5" d="M22.919,40.29c0.137,0.054,0.26,0.149,0.371,0.285c0.089,0.111,0.149,0.247,0.181,0.409
					c0.02,0.106,0.029,0.264,0.029,0.47l-0.006,2.004h-0.852v-2.024c0-0.121-0.02-0.22-0.059-0.298
					c-0.074-0.147-0.21-0.222-0.408-0.222c-0.23,0-0.389,0.096-0.476,0.286c-0.045,0.101-0.067,0.223-0.067,0.364v1.894h-0.838
					v-1.894c0-0.188-0.019-0.325-0.058-0.411c-0.07-0.153-0.207-0.23-0.412-0.23c-0.237,0-0.396,0.077-0.479,0.23
					c-0.044,0.088-0.066,0.218-0.066,0.391v1.914h-0.844v-3.174h0.809v0.464c0.103-0.166,0.2-0.283,0.292-0.354
					c0.161-0.124,0.37-0.187,0.627-0.187c0.243,0,0.439,0.054,0.589,0.16c0.121,0.1,0.213,0.227,0.274,0.383
					c0.109-0.188,0.244-0.324,0.406-0.412c0.171-0.087,0.361-0.131,0.571-0.131C22.646,40.208,22.784,40.236,22.919,40.29z"/>
				<path class="st5" d="M25.233,39.899h-0.844v-0.767h0.844V39.899z M24.389,40.279h0.844v3.18h-0.844V40.279z"/>
				<path class="st5" d="M28.703,40.46c0.208,0.173,0.313,0.458,0.313,0.856v2.142h-0.852v-1.935c0-0.167-0.022-0.295-0.067-0.385
					c-0.081-0.163-0.235-0.245-0.463-0.245c-0.28,0-0.472,0.119-0.576,0.358c-0.055,0.127-0.081,0.288-0.081,0.484v1.722h-0.832
					v-3.174h0.806v0.464c0.106-0.164,0.207-0.281,0.302-0.354c0.171-0.128,0.387-0.192,0.648-0.192
					C28.228,40.202,28.495,40.288,28.703,40.46z"/>
				<path class="st5" d="M30.758,39.899h-0.844v-0.767h0.844V39.899z M29.914,40.279h0.844v3.18h-0.844V40.279z"/>
				<path class="st5" d="M32.333,42.443c0.018,0.148,0.056,0.253,0.114,0.315c0.104,0.111,0.295,0.166,0.574,0.166
					c0.164,0,0.295-0.024,0.392-0.072c0.097-0.049,0.145-0.122,0.145-0.219c0-0.094-0.039-0.165-0.116-0.214
					c-0.078-0.048-0.368-0.132-0.87-0.25c-0.361-0.09-0.616-0.202-0.764-0.336c-0.148-0.132-0.222-0.323-0.222-0.572
					c0-0.293,0.115-0.546,0.347-0.757c0.23-0.211,0.556-0.316,0.975-0.316c0.397,0,0.722,0.079,0.972,0.237
					c0.251,0.159,0.395,0.433,0.432,0.821H33.48c-0.012-0.106-0.042-0.191-0.091-0.253c-0.092-0.113-0.248-0.17-0.469-0.17
					c-0.181,0-0.311,0.028-0.387,0.085c-0.077,0.057-0.116,0.122-0.116,0.198c0,0.096,0.041,0.164,0.123,0.207
					c0.082,0.045,0.371,0.122,0.868,0.23c0.331,0.078,0.579,0.195,0.745,0.354c0.163,0.159,0.245,0.358,0.245,0.598
					c0,0.315-0.118,0.572-0.353,0.771c-0.235,0.199-0.598,0.3-1.089,0.3c-0.501,0-0.871-0.106-1.109-0.317
					c-0.239-0.211-0.358-0.479-0.358-0.807H32.333z"/>
				<path class="st5" d="M34.823,40.9v-0.592h0.443V39.42h0.822v0.888h0.517V40.9h-0.517v1.681c0,0.13,0.017,0.211,0.05,0.243
					s0.135,0.049,0.304,0.049c0.025,0,0.052-0.001,0.08-0.002s0.056-0.002,0.083-0.004v0.621l-0.394,0.015
					c-0.394,0.014-0.661-0.055-0.806-0.204c-0.093-0.096-0.14-0.242-0.14-0.44V40.9H34.823z"/>
				<path class="st5" d="M39.06,40.203c0.011,0.001,0.035,0.003,0.071,0.005v0.852c-0.052-0.006-0.099-0.01-0.14-0.012
					s-0.074-0.003-0.1-0.003c-0.334,0-0.559,0.109-0.674,0.327c-0.063,0.122-0.096,0.312-0.096,0.566v1.52h-0.838v-3.18h0.794v0.554
					c0.128-0.212,0.24-0.356,0.336-0.435c0.155-0.13,0.357-0.195,0.606-0.195C39.036,40.202,39.049,40.202,39.06,40.203z"/>
				<path class="st5" d="M41.028,41.524c0.155-0.02,0.266-0.044,0.332-0.072c0.12-0.051,0.18-0.13,0.18-0.236
					c0-0.131-0.046-0.221-0.138-0.271s-0.227-0.074-0.403-0.074c-0.199,0-0.341,0.049-0.423,0.146
					c-0.06,0.072-0.099,0.17-0.119,0.292h-0.802c0.018-0.278,0.096-0.507,0.234-0.686c0.221-0.28,0.6-0.42,1.137-0.42
					c0.35,0,0.66,0.069,0.932,0.207c0.271,0.139,0.407,0.398,0.407,0.782v1.458c0,0.102,0.002,0.225,0.006,0.368
					c0.006,0.108,0.022,0.183,0.05,0.222s0.068,0.071,0.122,0.097v0.122h-0.904c-0.025-0.064-0.043-0.124-0.052-0.181
					c-0.01-0.057-0.018-0.121-0.023-0.192c-0.116,0.124-0.249,0.23-0.399,0.317c-0.18,0.104-0.384,0.155-0.61,0.155
					c-0.29,0-0.528-0.083-0.718-0.247c-0.188-0.164-0.283-0.397-0.283-0.698c0-0.392,0.152-0.674,0.456-0.85
					c0.166-0.095,0.411-0.163,0.734-0.204L41.028,41.524z M41.536,41.912c-0.054,0.033-0.107,0.06-0.161,0.08
					c-0.055,0.021-0.129,0.039-0.224,0.057l-0.189,0.035c-0.177,0.031-0.305,0.069-0.382,0.113c-0.131,0.076-0.196,0.194-0.196,0.354
					c0,0.142,0.04,0.244,0.12,0.308c0.079,0.063,0.177,0.095,0.291,0.095c0.182,0,0.35-0.053,0.503-0.157
					c0.152-0.105,0.232-0.297,0.238-0.575V41.912z"/>
				<path class="st5" d="M42.903,40.9v-0.592h0.443V39.42h0.822v0.888h0.517V40.9h-0.517v1.681c0,0.13,0.017,0.211,0.05,0.243
					s0.135,0.049,0.304,0.049c0.025,0,0.052-0.001,0.08-0.002s0.056-0.002,0.083-0.004v0.621l-0.394,0.015
					c-0.394,0.014-0.661-0.055-0.806-0.204c-0.093-0.096-0.14-0.242-0.14-0.44V40.9H42.903z"/>
				<path class="st5" d="M46.235,39.899h-0.844v-0.767h0.844V39.899z M45.391,40.279h0.844v3.18h-0.844V40.279z"/>
				<path class="st5" d="M49.823,43.07c-0.269,0.331-0.676,0.497-1.223,0.497c-0.546,0-0.954-0.166-1.223-0.497
					c-0.268-0.332-0.402-0.73-0.402-1.197c0-0.458,0.135-0.855,0.402-1.192c0.269-0.336,0.677-0.504,1.223-0.504
					c0.547,0,0.954,0.168,1.223,0.504c0.269,0.337,0.402,0.734,0.402,1.192C50.225,42.339,50.091,42.738,49.823,43.07z M49.158,42.61
					c0.13-0.173,0.195-0.419,0.195-0.737s-0.065-0.563-0.195-0.735c-0.131-0.172-0.317-0.258-0.561-0.258s-0.43,0.086-0.562,0.258
					c-0.131,0.172-0.197,0.417-0.197,0.735s0.066,0.564,0.197,0.737c0.132,0.173,0.318,0.26,0.562,0.26S49.027,42.783,49.158,42.61z"
					/>
				<path class="st5" d="M53.516,40.46c0.208,0.173,0.313,0.458,0.313,0.856v2.142h-0.852v-1.935c0-0.167-0.022-0.295-0.067-0.385
					c-0.081-0.163-0.235-0.245-0.463-0.245c-0.28,0-0.472,0.119-0.576,0.358c-0.055,0.127-0.081,0.288-0.081,0.484v1.722h-0.832
					v-3.174h0.806v0.464c0.106-0.164,0.207-0.281,0.302-0.354c0.171-0.128,0.387-0.192,0.648-0.192
					C53.04,40.202,53.308,40.288,53.516,40.46z"/>
			</g>
		</g>
		<circle class="st6" cx="32.679" cy="36.468" r="28.251"/>
	</g>
</svg>
