<svg version="1.1" id="certificate" xmlns="http://www.w3.org/2000/svg" xmlns:xlink="http://www.w3.org/1999/xlink" x="0px"
	 y="0px" width="121px" height="111.374px" viewBox="0 0 121 111.374" style="enable-background:new 0 0 121 111.374;"
	 xml:space="preserve">

	<g id="lines">
		<line class="st0" x1="18.085" y1="39.862" x2="102.968" y2="39.862"/>
		<line class="st0" x1="18.085" y1="53.834" x2="102.968" y2="53.834"/>
		<line class="st0" x1="18.085" y1="68.603" x2="68.768" y2="68.603"/>
		<line class="st0" x1="18.085" y1="81.423" x2="68.768" y2="81.423"/>
		<line class="st0" x1="18.085" y1="94.242" x2="68.768" y2="94.242"/>
	</g>
	<g id="marquee">
		<rect x="6.345" y="26.422" class="st1" width="109.551" height="80.644"/>
		<polyline class="st2" points="88.196,76.925 88.196,95.529 93.999,89.231 99.09,94.975 99.09,76.925 	"/>
		<path class="st3" d="M93.78,83.267c5.253,0,9.511-4.258,9.511-9.512c0-5.253-4.258-9.511-9.511-9.511s-9.512,4.258-9.512,9.511
			C84.268,79.009,88.527,83.267,93.78,83.267"/>
		<polyline class="st1" points="25.099,26.177 61.25,7.562 97.136,26.177 	"/>
		<path class="st4" d="M61.333,12.662c2.723,0,4.93-2.207,4.93-4.93s-2.207-4.93-4.93-4.93s-4.93,2.207-4.93,4.93
			S58.61,12.662,61.333,12.662"/>
	</g>
</svg>
