<svg version="1.1" id="compass" xmlns="http://www.w3.org/2000/svg" xmlns:xlink="http://www.w3.org/1999/xlink" x="0px" y="0px"
	 width="121px" height="111.374px" viewBox="0 0 121 111.374" style="enable-background:new 0 0 121 111.374;" xml:space="preserve"
	>

	<g class="arrow">
		<polygon class="st0" points="72.132,29.268 52.187,57.242 69.43,63.518 	"/>
		<polygon class="st1" points="49.46,91.506 52.162,57.256 69.405,63.532 	"/>
		<path class="st2" d="M52.494,65.375c2.759,4.592,8.718,6.078,13.31,3.319c4.592-2.759,6.078-8.719,3.319-13.31
			c-2.759-4.592-8.719-6.078-13.31-3.319C51.221,54.824,49.735,60.783,52.494,65.375"/>
		<circle class="st3" cx="60.808" cy="60.38" r="9.7"/>
	</g>
	<g class="clock">
		<line class="st4" x1="90.542" y1="23.656" x2="85.547" y2="29.824"/>
		<line class="st4" x1="36.026" y1="90.978" x2="31.031" y2="97.146"/>
		<line class="st4" x1="97.531" y1="90.157" x2="91.363" y2="85.162"/>
		<line class="st4" x1="30.209" y1="35.64" x2="24.041" y2="30.645"/>
		<line class="st4" x1="65.729" y1="106.424" x2="64.899" y2="98.531"/>
		<line class="st4" x1="56.674" y1="21.271" x2="55.844" y2="13.378"/>
		<line class="st4" x1="13.763" y1="65.343" x2="21.656" y2="64.513"/>
		<line class="st4" x1="99.916" y1="56.288" x2="107.809" y2="55.458"/>
		<circle class="st5" cx="60.804" cy="60.379" r="47.326"/>
	</g>
	<g class="north">
		<path class="st0" d="M100.59,21.422c5.439,0,9.848-4.409,9.848-9.848c0-5.438-4.409-9.847-9.848-9.847
			c-5.439,0-9.848,4.409-9.848,9.847C90.742,17.013,95.151,21.422,100.59,21.422"/>
		<polygon class="st2" points="96.389,12.451 97.058,13.012 100.558,8.84 99.674,15.207 100.461,15.868 104.799,10.698 
			104.13,10.137 100.625,14.314 101.552,7.973 100.727,7.281 	"/>
	</g>
</svg>
